<?xml version="1.0" encoding="utf-8"?>
<!-- Generator: Adobe Illustrator 21.0.0, SVG Export Plug-In . SVG Version: 6.00 Build 0)  -->
<svg version="1.1" id="Layer_1" xmlns="http://www.w3.org/2000/svg" xmlns:xlink="http://www.w3.org/1999/xlink" x="0px" y="0px"
	 viewBox="0 0 40 56" style="enable-background:new 0 0 40 56;" xml:space="preserve">
<style type="text/css">
	.st0{fill:#4373F9;}
</style>
<g>
	<path d="M27.8,0.5c-5.1,0.2-8.6,3-11.1,7.2c-2.2,3.8-3,8-3.1,12.3c-0.2,5.6,0,11.2,0,16.8c0,0.3-0.2,0.8-0.4,1
		c-1.8,1.6-3.6,3.2-5.5,4.8c-0.1,0.1-0.3,0.2-0.6,0.3C7,37.9,6.7,33,6.5,28.1c-2.2,0.1-4.3,0.2-6.5,0.3c0,0.4,0,0.6,0,0.9
		c0.2,4.4,0.4,8.7,0.6,13.1c0.1,1.5,0.1,2.9,0.3,4.4c0.3,2.2,2,3.8,4.1,4c1.3,0.1,2.6-0.2,3.7-0.9c1.6-1.1,3.1-2.3,4.6-3.4
		c0.3-0.2,0.6-0.5,0.9-0.8c0.4,3.4,0.7,6.6,1.1,9.9c2.2-0.3,4.3-0.5,6.4-0.8c-0.4-4.7-0.9-9.2-1.3-13.8c-0.1-0.6,0.2-1,0.6-1.4
		c2.3-2.1,4.5-4.3,6.8-6.4c0.3-0.3,0.8-0.5,1-0.7c-1.7-1.8-3.2-3.3-4.8-5.1c-1.3,1.4-2.6,2.8-3.9,4.2c-0.1,0-0.2-0.1-0.3-0.1
		c0-1.2,0-2.4,0-3.7c0.1-4.5,0-9.1,1.2-13.5c0.7-2.8,2-5.2,4.6-6.6c3.2-1.7,7,0,7.7,3.6c0.4,2.1-0.1,4-1.1,5.8
		c-0.7,1.4-1.5,2.7-2.3,4c1.7,1.3,3.4,2.6,5.1,3.9c0.3-0.4,0.6-0.7,0.8-1.1c2.2-3.2,3.9-6.5,4.1-10.5C40.4,5.9,35,0.2,27.8,0.5z"/>
	<path class="st0" d="M3.5,24.9c2,0,3.6-1.6,3.5-3.6c0-2-1.6-3.6-3.6-3.5c-1.9,0-3.5,1.6-3.5,3.5C0,23.3,1.6,24.9,3.5,24.9z"/>
</g>
</svg>
