<?xml version="1.0" encoding="utf-8"?>
<!-- Generator: Adobe Illustrator 21.0.0, SVG Export Plug-In . SVG Version: 6.00 Build 0)  -->
<svg version="1.1" id="Layer_1" xmlns="http://www.w3.org/2000/svg" xmlns:xlink="http://www.w3.org/1999/xlink" x="0px" y="0px" width="54px"	height="50px"
	 viewBox="0 0 54 50" style="enable-background:new 0 0 54 50;" xml:space="preserve">
<style type="text/css">
	.st0{opacity:0.73;fill:url(#SVGID_1_);enable-background:new    ;}
	.st1{fill:#12948A;}
	.st2{fill:#0B7A72;}
</style>
<radialGradient id="SVGID_1_" cx="-166.0883" cy="-1558.6779" r="11.0383" fx="-174.067" fy="-1558.8633" gradientTransform="matrix(1.1856 -0.1701 -9.260459e-02 -0.6455 88.7735 -995.0782)" gradientUnits="userSpaceOnUse">
	<stop  offset="9.999999e-08" style="stop-color:#4D4D4D"/>
	<stop  offset="1" style="stop-color:#FFFFFF;stop-opacity:0"/>
</radialGradient>
<path class="st0" d="M53.9,36.8c0.6,4-6.9,8.4-16.7,9.8C27.4,48,19,45.8,18.5,41.8c-0.6-4,6.9-8.4,16.7-9.8S53.4,32.8,53.9,36.8z"/>
<path class="st1" d="M38.7,12.4c-0.7-1.5-1.6-2.9-2.7-4c-1.1-1.1-2.4-2-4-2.7c-1.6-0.6-3.2-1-4.9-1c-1.7,0-3.3,0.3-4.8,1
	c-1.5,0.7-2.9,1.6-4,2.7s-2,2.5-2.7,4c-0.6,1.5-1,3.1-1,4.8c0,2.4,0.6,5,1.7,7.8s2.5,5.2,3.9,7.4s2.7,4.2,4,5.7
	c1.2,1.6,1.9,2.3,2.1,2.5l0.9,1l0.9-1c0.2-0.2,0.9-1,2.1-2.5c1.2-1.6,2.5-3.5,4-5.7c1.4-2.2,2.7-4.8,3.9-7.4
	c1.2-2.7,1.7-5.3,1.7-7.8C39.7,15.5,39.3,14,38.7,12.4z"/>
<circle class="st2" cx="27.2" cy="16.6" r="5.2"/>
</svg>
